<svg id="Ebene_1" data-name="Ebene 1" xmlns="http://www.w3.org/2000/svg" viewBox="0 0 269.77 74.26"><defs><style>.cls-1{fill:#49bed4;}.cls-2{fill:#e44d6a;}</style></defs><title>elancer-logo-rz</title><path d="M83.45,35.91H67.72c.22,6.4,3.74,8.8,7.19,8.8a6.84,6.84,0,0,0,6.81-5.47h1.46a8.29,8.29,0,0,1-8.35,6.66c-4.72,0-8.61-3.52-8.61-10.44,0-6.25,3.93-10.33,8.95-10.33,5.58,0,8.31,4.72,8.31,9.84C83.48,35.16,83.48,35.42,83.45,35.91ZM67.72,34.67H82c-.22-6.1-3.59-8.35-6.93-8.35S67.95,29,67.72,34.67Z" transform="translate(-1.67)"/><path d="M88.88,40.59c0,1.12,0,1.83,0,2.4.08,1.23.56,1.54,2.17,1.35v1.12a5.83,5.83,0,0,1-1.39.11c-1.23,0-2.13-.49-2.21-2.21,0-.75,0-1.42,0-2.73V17.87h1.42Z" transform="translate(-1.67)"/><path d="M107.52,41.08l-.94,2a7.05,7.05,0,0,1-6,2.84c-3.71,0-6.18-1.83-6.18-5.39,0-4.57,5.24-6.62,11.79-6.62h1.27V33c0-.9,0-1.68-.08-2.51-.22-2.66-1.95-4.15-5.05-4.15a5.33,5.33,0,0,0-5.69,4.9H95.21c.26-3.52,3.14-6.1,7.15-6.1s6.18,1.91,6.48,5.2c.07,1,.07,1.61.07,2.58v6.44c0,2.06.11,3.52.34,6h-1.46Zm0-3.44V35.09C101.8,34.71,96,36.21,96,40.44c0,2.66,1.65,4.27,4.94,4.27C104.87,44.71,107.49,41.45,107.49,37.63Z" transform="translate(-1.67)"/><path d="M129.54,34.37v11h-1.42V34.71a26.65,26.65,0,0,0-.15-3.18c-.34-3.07-2-5.17-5.58-5.17s-6.66,2.43-6.66,8.09V45.38H114.3V25.65h1.42v4.23l.9-2.06a7.27,7.27,0,0,1,5.91-2.69c4.08,0,6.48,2.25,6.85,6A25.1,25.1,0,0,1,129.54,34.37Z" transform="translate(-1.67)"/><path d="M150.28,31.9h-1.46c-.67-3.48-3-5.61-6.63-5.61s-7.45,2.92-7.45,9c0,6.44,3.56,9.4,7.3,9.4a6.44,6.44,0,0,0,6.59-5.32h1.46a7.88,7.88,0,0,1-8.16,6.51c-4.87,0-8.76-3.67-8.76-10.37,0-6.48,4.16-10.41,9.1-10.41A7.67,7.67,0,0,1,150.28,31.9Z" transform="translate(-1.67)"/><path d="M169.87,35.91H154.14c.22,6.4,3.74,8.8,7.19,8.8a6.84,6.84,0,0,0,6.81-5.47h1.46a8.29,8.29,0,0,1-8.35,6.66c-4.72,0-8.61-3.52-8.61-10.44,0-6.25,3.93-10.33,8.95-10.33,5.58,0,8.31,4.72,8.31,9.84C169.9,35.16,169.9,35.42,169.87,35.91Zm-15.72-1.23h14.3c-.22-6.1-3.59-8.35-6.93-8.35S154.37,29,154.14,34.67Z" transform="translate(-1.67)"/><path d="M181.48,25.24V26.4c-3.56-.26-6.06,2.06-6.06,8V45.38H174V25.65h1.42v4l1-2.4a4.89,4.89,0,0,1,4-2.13A4.14,4.14,0,0,1,181.48,25.24Z" transform="translate(-1.67)"/><path d="M192,38.23c0,.67,0,1.24,0,1.76.15,1.95.86,2.4,3.74,2.17v3.37a20.81,20.81,0,0,1-3.41.26c-3.86,0-5.24-1.27-5.47-4.08-.08-.9-.08-1.76-.08-2.88V28.61h-2.92V25.2h2.92V20.71H192V25.2h4.12v3.41H192Z" transform="translate(-1.67)"/><path d="M217,36.77H202.86c.34,4.19,2.21,5.5,4.6,5.5a3.9,3.9,0,0,0,4.16-3.37h5.16c-1,4.64-4.75,7-9.43,7-5.47,0-9.69-3.41-9.69-10.41,0-6.1,4-10.56,10.11-10.56s9.32,4.64,9.32,10.07A15.25,15.25,0,0,1,217,36.77ZM203,33.4h8.76c-.34-3.14-1.76-4.83-4.23-4.83S203.45,30.11,203,33.4Z" transform="translate(-1.67)"/><path d="M231.83,42.46l-1,2.13a8.65,8.65,0,0,1-4.94,1.31c-3.44,0-6.4-2-6.4-5.8,0-4.38,3.74-6.85,11-6.85h1.27v-.41a16.43,16.43,0,0,0-.07-1.87c-.15-1.39-1-2.4-3.07-2.4s-3.18,1.2-3.33,3.37l-5,0c.15-4.49,3.78-7,8.53-7,5.58,0,7.67,2.43,8,5.88.08.94.11,2,.11,3.07v6.44a34.3,34.3,0,0,0,.37,5.05h-5.05ZM231.76,38V36.43c-4.12-.3-6.89.64-6.89,3.26,0,1.76,1.2,2.58,3,2.58C230,42.27,231.76,40.81,231.76,38Z" transform="translate(-1.67)"/><path d="M271.44,33.51V45.38h-5.16V35a29.66,29.66,0,0,0-.15-3.26c-.26-2.06-1.38-3.18-3.37-3.18-2.32,0-3.63,2-3.63,6.59V45.38H254V35a29.67,29.67,0,0,0-.15-3.26c-.26-2.06-1.42-3.18-3.41-3.18-2.32,0-3.59,2-3.59,6.59V45.38h-5.17V25.47h5.17v3l1.46-2.4a7,7,0,0,1,4.23-1.16c3.26,0,5.32,1.61,6.1,3.78l1.95-2.62a7.1,7.1,0,0,1,4.27-1.16c3.78,0,6,2.21,6.4,4.94A24.12,24.12,0,0,1,271.44,33.51Z" transform="translate(-1.67)"/><path class="cls-1" d="M15.86,62.92a24.36,24.36,0,0,1-4.16-3.34,52,52,0,0,0,6.22,9.9s4.35-1.14,9.76-2.61A25.46,25.46,0,0,1,15.86,62.92Z" transform="translate(-1.67)"/><path class="cls-2" d="M25.93,13.4q10.2-2.07,18.47,1.67a50.93,50.93,0,0,1-.88-13S29.65,9.79,17.81,16.1h0A32.85,32.85,0,0,1,25.93,13.4Z" transform="translate(-1.67)"/><path class="cls-2" d="M55.13,40.35,22.38,47a8.63,8.63,0,0,0,4.32,5,9.31,9.31,0,0,0,6.28,1,14,14,0,0,0,4.56-1.55,10.53,10.53,0,0,0,2-1.66,20.85,20.85,0,0,0,1.79-2.22l13.72,7a25.73,25.73,0,0,1-2.89,3.6,29.07,29.07,0,0,1-15.55,8.12c-.63.13-1.25.23-1.87.32a77.54,77.54,0,0,0,10.08,7.66S65.58,63,73.39,57.78A69.62,69.62,0,0,1,55.13,40.35Z" transform="translate(-1.67)"/><path class="cls-2" d="M28.86,26.88a10.22,10.22,0,0,0-6.21,3.62,10,10,0,0,0-2.19,6.57L40.66,33a8.49,8.49,0,0,0-4.48-5.22A11,11,0,0,0,28.86,26.88Z" transform="translate(-1.67)"/><path class="cls-1" d="M32.53,8.11C33.13,3.17,33.8,0,33.8,0l-32,8.51a117.59,117.59,0,0,0,2,27.64A23.58,23.58,0,0,1,8,24.45,25.44,25.44,0,0,1,17.92,16C22.83,13.42,28.07,10.56,32.53,8.11Z" transform="translate(-1.67)"/></svg>